<svg height="50px" viewBox="-94 0 512 512" width="50px" xmlns="http://www.w3.org/2000/svg"><path d="m315.734375 25.601562v426.664063c0 28.277344-22.925781 51.199219-51.199219 51.199219h-238.933594c-9.414062-.027344-17.039062-7.652344-17.066406-17.066406v-460.796876c.027344-9.414062 7.652344-17.039062 17.066406-17.066406h273.066407c9.414062.027344 17.039062 7.652344 17.066406 17.066406zm0 0" fill="#728f9c"/><path d="m290.132812 25.601562v426.664063c0 28.277344-22.921874 51.199219-51.199218 51.199219h-213.332032c-9.414062-.027344-17.039062-7.652344-17.066406-17.066406v-460.796876c.027344-9.414062 7.652344-17.039062 17.066406-17.066406h247.464844c9.414063.027344 17.039063 7.652344 17.066406 17.066406zm0 0" fill="#d7dee2"/><path d="m162.132812 51.199219h-110.933593c-4.710938 0-8.53125 3.820312-8.53125 8.535156v170.664063c0 4.714843 3.820312 8.535156 8.53125 8.535156h179.199219c28.277343 0 51.203124-22.921875 51.203124-51.199219v-128c0-4.714844-3.820312-8.535156-8.535156-8.535156zm0 0" fill="#475962"/><path d="m136.535156 349.867188c0 28.277343-22.925781 51.199218-51.203125 51.199218-28.277343 0-51.199219-22.921875-51.199219-51.199218 0-28.277344 22.921876-51.199219 51.199219-51.199219 28.277344 0 51.203125 22.921875 51.203125 51.199219zm0 0" fill="#728f9c"/><path d="m93.867188 85.332031h136.53125c4.714843 0 8.535156 3.820313 8.535156 8.535157v102.398437c0 4.714844-3.820313 8.535156-8.535156 8.535156h-136.53125c-4.714844 0-8.535157-3.820312-8.535157-8.535156v-102.398437c0-4.714844 3.820313-8.535157 8.535157-8.535157zm0 0" fill="#9aca5c"/><path d="m193.167969 357.363281 36.203125-36.203125c9.996094-10 26.207031-10 36.203125 0 10 9.996094 10 26.203125 0 36.203125l-36.203125 36.203125c-9.996094 9.996094-26.207032 9.996094-36.203125 0-10-9.996094-10-26.207031 0-36.203125zm0 0" fill="#f85b44"/><path d="m264.535156 512h-238.933594c-14.140624 0-25.601562-11.460938-25.601562-25.601562v-460.796876c0-14.140624 11.460938-25.601562 25.601562-25.601562h273.066407c14.136719 0 25.597656 11.460938 25.597656 25.601562v426.664063c-.035156 32.976563-26.757813 59.695313-59.730469 59.734375zm-238.933594-494.933594c-4.714843 0-8.535156 3.820313-8.535156 8.535156v460.796876c0 4.714843 3.820313 8.535156 8.535156 8.535156h238.933594c23.550782-.027344 42.636719-19.113282 42.664063-42.667969v-426.664063c0-4.714843-3.820313-8.535156-8.53125-8.535156zm0 0"/><path d="m230.398438 247.464844h-179.199219c-9.425781 0-17.066407-7.640625-17.066407-17.066406v-170.664063c0-9.425781 7.640626-17.066406 17.066407-17.066406h221.867187c9.425782 0 17.066406 7.640625 17.066406 17.066406v128c-.035156 32.972656-26.757812 59.695313-59.734374 59.730469zm-179.199219-187.730469v170.664063h179.199219c23.554687-.027344 42.640624-19.113282 42.667968-42.664063v-128zm0 0"/><path d="m85.332031 401.066406c-28.277343 0-51.199219-22.921875-51.199219-51.199218 0-28.277344 22.921876-51.199219 51.199219-51.199219 28.277344 0 51.203125 22.921875 51.203125 51.199219-.03125 28.265624-22.9375 51.171874-51.203125 51.199218zm0-85.332031c-18.851562 0-34.132812 15.28125-34.132812 34.132813 0 18.851562 15.28125 34.132812 34.132812 34.132812 18.851563 0 34.132813-15.28125 34.132813-34.132812 0-18.851563-15.28125-34.132813-34.132813-34.132813zm0 0"/><path d="m230.398438 213.332031h-136.53125c-9.425782 0-17.066407-7.640625-17.066407-17.066406v-102.398437c0-9.425782 7.640625-17.066407 17.066407-17.066407h136.53125c9.425781 0 17.066406 7.640625 17.066406 17.066407v102.398437c0 9.425781-7.640625 17.066406-17.066406 17.066406zm-136.53125-119.464843v102.398437h136.53125v-102.398437zm0 0"/><path d="m145.066406 281.601562h-102.398437c-4.714844 0-8.535157-3.820312-8.535157-8.535156 0-4.710937 3.820313-8.53125 8.535157-8.53125h102.398437c4.714844 0 8.535156 3.820313 8.535156 8.53125 0 4.714844-3.820312 8.535156-8.535156 8.535156zm0 0"/><path d="m85.332031 401.066406c-4.710937 0-8.53125-3.820312-8.53125-8.53125v-85.335937c0-4.710938 3.820313-8.53125 8.53125-8.53125 4.714844 0 8.535157 3.820312 8.535157 8.53125v85.335937c0 4.710938-3.820313 8.53125-8.535157 8.53125zm0 0"/><path d="m128 358.398438h-85.332031c-4.714844 0-8.535157-3.820313-8.535157-8.53125 0-4.714844 3.820313-8.535157 8.535157-8.535157h85.332031c4.710938 0 8.535156 3.820313 8.535156 8.535157 0 4.710937-3.824218 8.53125-8.535156 8.53125zm0 0"/><path d="m211.257812 409.601562c-13.792968-.011718-26.226562-8.324218-31.507812-21.070312s-2.371094-27.417969 7.378906-37.179688l36.207032-36.207031c13.511718-12.875 34.75-12.875 48.261718 0 6.402344 6.402344 10 15.082031 10 24.136719s-3.597656 17.734375-10 24.136719l-36.195312 36.199219c-6.402344 6.40625-15.089844 9.996093-24.144532 9.984374zm36.207032-87.410156c-4.527344-.011718-8.871094 1.789063-12.0625 5.003906l-36.207032 36.207032c-4.3125 4.308594-5.996093 10.59375-4.417968 16.484375 1.582031 5.890625 6.183594 10.488281 12.074218 12.066406 5.886719 1.578125 12.171876-.109375 16.484376-4.421875l36.195312-36.195312c4.886719-4.882813 6.351562-12.226563 3.707031-18.605469-2.640625-6.378907-8.867187-10.539063-15.773437-10.539063zm0 0"/><path d="m119.464844 469.332031c-3.449219 0-6.558594-2.078125-7.878906-5.265625-1.320313-3.1875-.59375-6.859375 1.847656-9.300781l25.601562-25.597656c3.347656-3.234375 8.667969-3.1875 11.960938.101562 3.292968 3.292969 3.335937 8.617188.105468 11.964844l-25.601562 25.597656c-1.601562 1.601563-3.769531 2.5-6.035156 2.5zm0 0"/><path d="m170.667969 469.332031c-3.453125 0-6.5625-2.078125-7.882813-5.265625-1.320312-3.1875-.589844-6.859375 1.847656-9.300781l25.601563-25.597656c3.347656-3.234375 8.667969-3.1875 11.960937.101562 3.292969 3.292969 3.339844 8.617188.105469 11.964844l-25.601562 25.597656c-1.597657 1.601563-3.769531 2.5-6.03125 2.5zm0 0"/></svg>